<?xml version="1.0" standalone="no"?>
<!DOCTYPE svg PUBLIC "-//W3C//DTD SVG 20010904//EN"
 "http://www.w3.org/TR/2001/REC-SVG-20010904/DTD/svg10.dtd">
<svg version="1.0" xmlns="http://www.w3.org/2000/svg"
 width="512.000000pt" height="512.000000pt" viewBox="0 0 512.000000 512.000000"
 preserveAspectRatio="xMidYMid meet">
<metadata>
Created by potrace 1.14, written by Peter Selinger 2001-2017
</metadata>
<g transform="translate(0.000000,512.000000) scale(0.100000,-0.100000)"
fill="#000000" stroke="none">
<path d="M2471 4847 c-17 -56 -45 -154 -61 -217 -16 -63 -29 -104 -30 -90 -2
14 -2 28 -1 33 0 4 -3 7 -8 7 -11 0 -61 -134 -76 -205 -27 -126 -33 -184 -30
-305 2 -74 5 -146 8 -160 21 -110 42 -191 59 -237 20 -54 21 -129 3 -233 -19
-112 -78 -243 -133 -295 -47 -44 -74 -58 -149 -80 -352 -99 -648 -306 -858
-600 -117 -163 -189 -321 -241 -530 -18 -73 -25 -313 -12 -405 27 -185 129
-408 260 -567 30 -36 164 -170 207 -207 71 -60 230 -161 326 -207 94 -45 249
-104 298 -113 12 -2 51 -11 87 -20 92 -21 215 -38 287 -40 48 -1 63 -5 64 -16
0 -13 1 -13 7 0 10 22 142 22 134 0 -4 -12 -2 -12 9 1 10 12 45 20 114 28 112
12 142 17 200 33 22 5 50 12 62 14 51 9 206 69 308 119 649 314 950 942 744
1556 -37 110 -110 266 -151 324 -87 120 -144 189 -215 259 -187 186 -424 317
-681 377 -125 29 -122 28 -164 71 -44 46 -86 131 -123 250 -14 46 -28 90 -31
98 -4 8 -8 29 -10 45 -2 17 -5 43 -7 59 -2 16 3 42 11 58 8 17 22 56 32 87 31
103 16 371 -20 371 -4 0 -7 37 -7 83 0 84 -11 250 -18 277 -2 8 -7 39 -10 69
-4 30 -11 66 -17 80 -5 14 -9 27 -9 29 1 1 1 11 1 23 0 26 -16 17 -23 -13 -2
-13 -14 -67 -27 -122 -12 -54 -23 -108 -25 -119 -6 -26 -14 -34 -13 -11 1 18
-9 224 -17 359 -4 69 -16 179 -19 182 -2 2 -17 -43 -35 -100z"/>
<path d="M2650 365 c0 -5 5 -17 10 -25 5 -8 10 -10 10 -5 0 6 -5 17 -10 25 -5
8 -10 11 -10 5z"/>
<path d="M2516 343 c-6 -14 -5 -15 5 -6 7 7 10 15 7 18 -3 3 -9 -2 -12 -12z"/>
<path d="M2620 325 c0 -8 4 -15 10 -15 5 0 7 7 4 15 -4 8 -8 15 -10 15 -2 0
-4 -7 -4 -15z"/>
<path d="M2369 293 c-13 -16 -12 -17 4 -4 16 13 21 21 13 21 -2 0 -10 -8 -17
-17z"/>
<path d="M2417 269 c7 -7 15 -10 18 -7 3 3 -2 9 -12 12 -14 6 -15 5 -6 -5z"/>
<path d="M2266 262 c-3 -5 1 -9 9 -9 8 0 12 4 9 9 -3 4 -7 8 -9 8 -2 0 -6 -4
-9 -8z"/>
<path d="M2487 244 c-13 -18 -14 -22 -3 -18 8 3 17 13 20 21 10 25 3 23 -17
-3z"/>
<path d="M2640 251 c0 -11 4 -22 9 -25 4 -3 6 6 3 19 -5 30 -12 33 -12 6z"/>
<path d="M2576 225 c8 -37 14 -45 14 -19 0 10 -5 26 -10 34 -8 11 -9 7 -4 -15z"/>
<path d="M2590 146 c0 -2 8 -10 18 -17 15 -13 16 -12 3 4 -13 16 -21 21 -21
13z"/>
</g>
</svg>
